<svg xmlns="http://www.w3.org/2000/svg" width="1050" height="565" viewBox="0 0 1050 565" role="img" aria-label="The coefficient of linear regret decreases with temporal memory">
<rect width="100%" height="100%" fill="white"/>
<g font-family="Arial, sans-serif" fill="#172b4d">
<text x="35" y="34" font-size="24" text-anchor="start" >The coefficient of linear regret decreases with temporal memory</text>
<text x="35" y="62" font-size="15" text-anchor="start" >Five arms; stationary variance 1; 40 runs × 30,000 measured rounds; 95% intervals</text>
<line x1="85" y1="455.0" x2="945" y2="455.0" stroke="#dce3ea" stroke-width="1" />
<text x="75" y="460.0" font-size="15" text-anchor="end" >0.00</text>
<line x1="85" y1="387.0" x2="945" y2="387.0" stroke="#dce3ea" stroke-width="1" />
<text x="75" y="392.0" font-size="15" text-anchor="end" >0.26</text>
<line x1="85" y1="319.0" x2="945" y2="319.0" stroke="#dce3ea" stroke-width="1" />
<text x="75" y="324.0" font-size="15" text-anchor="end" >0.52</text>
<line x1="85" y1="251.0" x2="945" y2="251.0" stroke="#dce3ea" stroke-width="1" />
<text x="75" y="256.0" font-size="15" text-anchor="end" >0.78</text>
<line x1="85" y1="183.0" x2="945" y2="183.0" stroke="#dce3ea" stroke-width="1" />
<text x="75" y="188.0" font-size="15" text-anchor="end" >1.04</text>
<line x1="85" y1="115.0" x2="945" y2="115.0" stroke="#dce3ea" stroke-width="1" />
<text x="75" y="120.0" font-size="15" text-anchor="end" >1.30</text>
<line x1="85.0" y1="115" x2="85.0" y2="455" stroke="#dce3ea" stroke-width="1" />
<text x="85.0" y="480" font-size="15" text-anchor="middle" >1</text>
<line x1="193.76589091515234" y1="115" x2="193.76589091515234" y2="455" stroke="#dce3ea" stroke-width="1" />
<text x="193.76589091515234" y="480" font-size="15" text-anchor="middle" >2</text>
<line x1="446.31246879649865" y1="115" x2="446.31246879649865" y2="455" stroke="#dce3ea" stroke-width="1" />
<text x="446.31246879649865" y="480" font-size="15" text-anchor="middle" >10</text>
<line x1="807.6249375929973" y1="115" x2="807.6249375929973" y2="455" stroke="#dce3ea" stroke-width="1" />
<text x="807.6249375929973" y="480" font-size="15" text-anchor="middle" >100</text>
<line x1="916.3908285081498" y1="115" x2="916.3908285081498" y2="455" stroke="#dce3ea" stroke-width="1" />
<text x="916.3908285081498" y="480" font-size="15" text-anchor="middle" >200</text>
<text x="515.0" y="510" font-size="16" text-anchor="middle" >Memory scale 1 / (1 − φ), logarithmic axis</text>
<text x="22" y="285.0" font-size="16" text-anchor="middle" transform="rotate(-90 22 285.0)">Expected regret per round</text>
<polyline points="85.00,150.67 101.53,162.17 193.77,221.54 446.31,334.34 807.62,384.73 916.39,387.90" fill="none" stroke="#009e73" stroke-width="2.6" />
<circle cx="85.00" cy="150.67" r="3.5" fill="#009e73"/>
<line x1="85.0" y1="151.1172835873889" x2="85.0" y2="150.23101367757118" stroke="#009e73" stroke-width="1" />
<circle cx="101.53" cy="162.17" r="3.5" fill="#009e73"/>
<line x1="101.53275188041002" y1="162.630727043906" x2="101.53275188041002" y2="161.71776234884345" stroke="#009e73" stroke-width="1" />
<circle cx="193.77" cy="221.54" r="3.5" fill="#009e73"/>
<line x1="193.76589091515234" y1="222.0145905125794" x2="193.76589091515234" y2="221.0703316144319" stroke="#009e73" stroke-width="1" />
<circle cx="446.31" cy="334.34" r="3.5" fill="#009e73"/>
<line x1="446.31246879649865" y1="334.98322148310535" x2="446.31246879649865" y2="333.6999991684873" stroke="#009e73" stroke-width="1" />
<circle cx="807.62" cy="384.73" r="3.5" fill="#009e73"/>
<line x1="807.6249375929972" y1="386.2940417047482" x2="807.6249375929972" y2="383.1673471480565" stroke="#009e73" stroke-width="1" />
<circle cx="916.39" cy="387.90" r="3.5" fill="#009e73"/>
<line x1="916.3908285081495" y1="390.36293825863476" x2="916.3908285081495" y2="385.44132239631693" stroke="#009e73" stroke-width="1" />
<line x1="88" y1="87" x2="113" y2="87" stroke="#009e73" stroke-width="2.6" />
<text x="120" y="92" font-size="14" text-anchor="start" >Greedy</text>
<polyline points="85.00,151.20 101.53,151.87 193.77,170.41 446.31,293.93 807.62,414.51 916.39,429.38" fill="none" stroke="#d55e00" stroke-width="2.6" />
<circle cx="85.00" cy="151.20" r="3.5" fill="#d55e00"/>
<line x1="85.0" y1="151.7380893275618" x2="85.0" y2="150.65571409339444" stroke="#d55e00" stroke-width="1" />
<circle cx="101.53" cy="151.87" r="3.5" fill="#d55e00"/>
<line x1="101.53275188041002" y1="152.39138569400916" x2="101.53275188041002" y2="151.34102704945406" stroke="#d55e00" stroke-width="1" />
<circle cx="193.77" cy="170.41" r="3.5" fill="#d55e00"/>
<line x1="193.76589091515234" y1="170.9039052474644" x2="193.76589091515234" y2="169.92224800367575" stroke="#d55e00" stroke-width="1" />
<circle cx="446.31" cy="293.93" r="3.5" fill="#d55e00"/>
<line x1="446.31246879649865" y1="294.38151052972137" x2="446.31246879649865" y2="293.4698116316234" stroke="#d55e00" stroke-width="1" />
<circle cx="807.62" cy="414.51" r="3.5" fill="#d55e00"/>
<line x1="807.6249375929972" y1="414.74030893890864" x2="807.6249375929972" y2="414.2743281230421" stroke="#d55e00" stroke-width="1" />
<circle cx="916.39" cy="429.38" r="3.5" fill="#d55e00"/>
<line x1="916.3908285081495" y1="429.6590756999869" x2="916.3908285081495" y2="429.1059430166248" stroke="#d55e00" stroke-width="1" />
<line x1="380" y1="87" x2="405" y2="87" stroke="#d55e00" stroke-width="2.6" />
<text x="412" y="92" font-size="14" text-anchor="start" >Thompson</text>
<polyline points="85.00,150.67 101.53,156.61 193.77,188.14 446.31,306.74 807.62,415.91 916.39,430.12" fill="none" stroke="#0072b2" stroke-width="2.6" />
<circle cx="85.00" cy="150.67" r="3.5" fill="#0072b2"/>
<line x1="85.0" y1="151.1172835873889" x2="85.0" y2="150.23101367757118" stroke="#0072b2" stroke-width="1" />
<circle cx="101.53" cy="156.61" r="3.5" fill="#0072b2"/>
<line x1="101.53275188041002" y1="157.140543928846" x2="101.53275188041002" y2="156.0717088993835" stroke="#0072b2" stroke-width="1" />
<circle cx="193.77" cy="188.14" r="3.5" fill="#0072b2"/>
<line x1="193.76589091515234" y1="188.67593924423755" x2="193.76589091515234" y2="187.60649000661942" stroke="#0072b2" stroke-width="1" />
<circle cx="446.31" cy="306.74" r="3.5" fill="#0072b2"/>
<line x1="446.31246879649865" y1="307.1790731638074" x2="446.31246879649865" y2="306.3068706134642" stroke="#0072b2" stroke-width="1" />
<circle cx="807.62" cy="415.91" r="3.5" fill="#0072b2"/>
<line x1="807.6249375929972" y1="416.1721218102935" x2="807.6249375929972" y2="415.64954675078394" stroke="#0072b2" stroke-width="1" />
<circle cx="916.39" cy="430.12" r="3.5" fill="#0072b2"/>
<line x1="916.3908285081495" y1="430.3799794268092" x2="916.3908285081495" y2="429.8520235593244" stroke="#0072b2" stroke-width="1" />
<line x1="672" y1="87" x2="697" y2="87" stroke="#0072b2" stroke-width="2.6" />
<text x="704" y="92" font-size="14" text-anchor="start" >Predictive Sampling</text>
<polyline points="85.00,150.67 101.53,162.18 193.77,221.52 446.31,341.64 807.62,402.77 916.39,408.06" fill="none" stroke="#cc79a7" stroke-width="2.6" />
<circle cx="85.00" cy="150.67" r="3.5" fill="#cc79a7"/>
<line x1="85.0" y1="151.1172835873889" x2="85.0" y2="150.23101367757118" stroke="#cc79a7" stroke-width="1" />
<circle cx="101.53" cy="162.18" r="3.5" fill="#cc79a7"/>
<line x1="101.53275188041002" y1="162.73628450571834" x2="101.53275188041002" y2="161.6275862378028" stroke="#cc79a7" stroke-width="1" />
<circle cx="193.77" cy="221.52" r="3.5" fill="#cc79a7"/>
<line x1="193.76589091515234" y1="222.01226346102675" x2="193.76589091515234" y2="221.02375125397617" stroke="#cc79a7" stroke-width="1" />
<circle cx="446.31" cy="341.64" r="3.5" fill="#cc79a7"/>
<line x1="446.31246879649865" y1="342.21002206771544" x2="446.31246879649865" y2="341.0756287209318" stroke="#cc79a7" stroke-width="1" />
<circle cx="807.62" cy="402.77" r="3.5" fill="#cc79a7"/>
<line x1="807.6249375929972" y1="404.0786334634399" x2="807.6249375929972" y2="401.45141350344414" stroke="#cc79a7" stroke-width="1" />
<circle cx="916.39" cy="408.06" r="3.5" fill="#cc79a7"/>
<line x1="916.3908285081495" y1="410.127230719063" x2="916.3908285081495" y2="405.99969284423565" stroke="#cc79a7" stroke-width="1" />
<line x1="88" y1="106" x2="113" y2="106" stroke="#cc79a7" stroke-width="2.6" />
<text x="120" y="111" font-size="14" text-anchor="start" >Two-step</text>
<polyline points="85.00,150.84 101.53,150.84 193.77,150.84 446.31,150.84 807.62,150.84 916.39,150.84" fill="none" stroke="#666666" stroke-width="2.6" stroke-dasharray="6 4"/>
<line x1="380" y1="106" x2="405" y2="106" stroke="#666666" stroke-width="2.6" stroke-dasharray="6 4"/>
<text x="412" y="111" font-size="14" text-anchor="start" >Fixed-arm coefficient</text>
<polyline points="85.00,150.84 101.53,181.26 193.77,302.92 446.31,424.58 807.62,451.96 916.39,453.48" fill="none" stroke="#111111" stroke-width="2.6" stroke-dasharray="6 4"/>
<line x1="672" y1="106" x2="697" y2="106" stroke="#111111" stroke-width="2.6" stroke-dasharray="6 4"/>
<text x="704" y="111" font-size="14" text-anchor="start" >Universal lower bound</text>
<text x="35" y="547" font-size="14" text-anchor="start" >Synthetic known-parameter experiments; uncertainty intervals across independent runs.</text>
</g></svg>
